<svg width="100" height="100" viewBox="0 0 100 100" fill="none" xmlns="http://www.w3.org/2000/svg">
<circle cx="50" cy="50" r="49.5" fill="#121212" stroke="#A87C31"/>
<g clip-path="url(#clip0_531_1084)">
<path d="M31.5417 27.8335H42.375L47.7917 41.3752L41.0208 45.4377C43.9213 51.3189 48.6813 56.0788 54.5625 58.9793L58.625 52.2085L72.1667 57.6252V68.4585C72.1667 69.8951 71.596 71.2728 70.5802 72.2887C69.5643 73.3045 68.1866 73.8752 66.75 73.8752C56.1855 73.2332 46.2213 68.7469 38.7372 61.2629C31.2532 53.7789 26.767 43.8147 26.125 33.2502C26.125 31.8136 26.6957 30.4358 27.7115 29.42C28.7273 28.4042 30.1051 27.8335 31.5417 27.8335Z" stroke="#A87C31" stroke-width="3" stroke-linecap="round" stroke-linejoin="round"/>
</g>
<defs>
<clipPath id="clip0_531_1084">
<rect width="65" height="65" fill="white" transform="translate(18 17)"/>
</clipPath>
</defs>
</svg>
