<svg width="13811" height="7854" viewBox="0 0 13811 7854" fill="none" xmlns="http://www.w3.org/2000/svg">
<path d="M1529.5 5108L2081.28 6195.43L1901.41 7854H0L1529.5 5108Z" fill="white"/>
<path d="M12100.5 4849.86L11706.8 5614.61L11803.6 5653.33L12287.6 6760.12L13810.7 7847.55L12100.5 4849.86Z" fill="white"/>
<g filter="url(#filter0_f_531_1086)">
<path d="M12201.3 5340.33L12103.7 5820.28L12253.1 6669.18L13298.9 7547.45H13542.8L12201.3 5340.33Z" fill="white"/>
</g>
<path d="M12287.6 6760.12L12074.6 7854H12678H13810.7V7847.55L12287.6 6760.12Z" fill="white"/>
<path d="M11793.9 5669.46L11706.8 5614.61L11480.9 6030.86L11603.5 7334.49L11900.4 7854H11968.2L12200.5 6727.85L11793.9 5669.46Z" fill="white"/>
<path d="M11803.6 5653.33L11706.8 5614.61L11793.9 5669.46L12200.5 6727.85L12013.3 7628.12L11968.2 7854H12081.1L12287.6 6756.89L11803.6 5653.33Z" fill="white"/>
<path d="M2481.4 4814.37L3478.48 5211.26L2081.28 6195.43L1529.5 5108L2481.4 4814.37Z" fill="white"/>
<path d="M3481.7 5204.81L2655.65 6640.73L1958.66 7854H1900.58L2126.45 6250.29L3481.7 5204.81Z" fill="white"/>
<path d="M11142.1 4582.04L10332.2 5172.54L11713.2 5604.93L12100.5 4849.86L11142.1 4582.04Z" fill="white"/>
<path d="M11155 4630.44L10335.4 5182.22L11571.3 5337.11L11942.3 4798.23L11155 4630.44Z" fill="white"/>
<path d="M11713.2 5604.93L10332.2 5172.54L11603.5 7334.49L11480.9 6037.32L11713.2 5604.93Z" fill="white"/>
<path d="M4191.6 2152.27L3672.08 4888.58L3478.48 5211.26L2481.4 4814.37L4191.6 2152.27Z" fill="white"/>
<g filter="url(#filter1_f_531_1086)">
<path d="M3729.98 3078.36L3729.98 3952.82L3729.98 4469.24L2555.48 4836.96L3729.98 3078.36Z" fill="white" fill-opacity="0.6"/>
</g>
<g filter="url(#filter2_f_531_1086)">
<path d="M3672.08 4504.59V4828.19L3391.35 5198.35L2552.39 4828.19L3672.08 4504.59Z" fill="white" fill-opacity="0.62"/>
</g>
<path d="M9354.46 1771.51L9912.69 4401.34L10335.4 5178.99L11203.4 4598.17L9354.46 1771.51Z" fill="white"/>
<path d="M4191.6 2152.27L4269.04 2184.54L3752.75 4740.15L3639.82 4943.44L3704.35 3123.53L4191.6 2152.27Z" fill="white"/>
<path d="M9354.46 1771.51L9277.01 1800.55L9780.39 4172.24L9919.14 4417.47L9354.46 1771.51Z" fill="white"/>
<path d="M10261.2 3920.55L10015.9 3591.41L9590.01 2746L10154.7 3972.18L10048.2 4643.35L10187 4904.72L10261.2 3920.55Z" fill="white"/>
<path d="M10512.9 3797.93L9360.91 1939.3L9299.6 1887.67L10482.1 3827.32L11000.1 4733.7L11067.9 4688.52L10512.9 3797.93Z" fill="white"/>
<path d="M4269.04 2184.54L5004.75 2500.76L4946.66 2626.6L4233.54 2342.65L4269.04 2184.54Z" fill="white"/>
<path d="M4091.46 2742.91L3681.76 3694.67L3507.52 3223.56L4191.6 2142.57L4091.46 2742.91Z" fill="white"/>
<path d="M4991.84 2491.08L6898.87 0L5785.63 1781.19L4685.3 3226.79L4991.84 2491.08Z" fill="white"/>
<path d="M3752.75 4743.38L4236.77 2342.62L4988.16 2595.02L4691.9 3204.66L4549.96 3407.24L3752.75 4743.38Z" fill="white"/>
<path d="M9357.52 1775.61L8155.99 1976.11L8289.62 2384.6L9396.4 1971.57L9357.52 1775.61Z" fill="white"/>
<path d="M4662.66 3227.01L6898.87 0.0024804L6914.06 1831.98L6403.11 2177.86L4662.66 3227.01Z" fill="white"/>
<path d="M8076.65 1810.23L6902.1 0H6898.87L6902.1 1810.23L7995.98 2523.35L8076.65 1810.23Z" fill="white"/>
<path d="M9315.74 1981.25L8270.26 2136.13L7999.21 2523.35L9309.28 3368.77L9780.39 4172.24L9315.74 1981.25Z" fill="white"/>
<path d="M8412.24 1932.85L6902.1 0L7402.25 1387.52L7995.98 2526.57L8412.24 1932.85Z" fill="white"/>
<path d="M3475.25 5214.49L2132.91 6247.06L2039.33 7063.44L1900.58 7854L2081.28 6195.43L3475.25 5214.49Z" fill="white"/>
<path d="M2132.91 6159.94V6237.38H2081.28L1532.72 5111.23L2132.91 6159.94Z" fill="#FDFFFE"/>
<path d="M3856.01 7021.49H5853.39V6079.27L5001.52 6453.57L5230.62 5511.35L6676.22 4827.27V7854H2326.51L4817.59 3633.36L6676.22 2468.49V4230.32L5853.39 4685.29V3962.49L5388.73 4230.32L3856.01 7021.49Z" fill="white"/>
<path d="M7105.39 2445.9L9031.78 3651.25L9922.37 5223.29L8634.88 4623.81L8389.65 4158.26L7966.94 3919.1V4760.93L10309.6 5845.1L11442.2 7854H9215.71H7105.39V5762.19L7966.94 6122.52V6922.89L10048.2 6996.23L9706.18 6454.15L7105.39 5290.26V2445.9Z" fill="white"/>
<path d="M2081.28 6237.38L1481.44 6843.4L399.071 7854H96.8037L1575.02 5191.28L2081.28 6237.38Z" fill="white"/>
<path d="M1721.78 6600.8L1670.51 6652.78L1369.12 5999.81L1721.78 6600.8Z" fill="#FDFFFE"/>
<path d="M6740.62 233.203C6740.71 230.525 6741.57 227.93 6743.09 225.725L6898.47 0.588335C6898.72 0.219949 6899.14 0 6899.59 0C6900.34 0 6900.95 0.609734 6900.95 1.36188V1189.75C6900.95 1204.5 6881.07 1209.22 6874.44 1196.04L6823.93 1095.56C6819.57 1086.89 6807.93 1085.17 6801.26 1092.21L6463.16 1448.75C6461.13 1450.9 6459.82 1453.64 6459.44 1456.57L6363.22 2194.22L6376.06 1356.57C6376.11 1353.62 6377.09 1350.75 6378.86 1348.38L6715.52 899.957C6717.25 897.662 6718.22 894.893 6718.32 892.025L6740.62 233.203Z" fill="white"/>
<path d="M6450.35 1419.79L6624.6 1139.06L6902.1 1003.53V1481.1L6831.11 1116.47L6450.35 1419.79Z" fill="white"/>
<path d="M6424.53 1403.65L6531.02 1271.35L6643.96 1226.18L6450.35 1929.62L6363.22 2200.67L6424.53 1403.65Z" fill="white"/>
<path d="M9228.63 1884.46L8267.04 2132.92L8070.2 2416.86L9357.69 2171.63L9322.2 1984.48L9228.63 1884.46Z" fill="white"/>
<defs>
<filter id="filter0_f_531_1086" x="12098.7" y="5335.33" width="1449.15" height="2217.12" filterUnits="userSpaceOnUse" color-interpolation-filters="sRGB">
<feFlood flood-opacity="0" result="BackgroundImageFix"/>
<feBlend mode="normal" in="SourceGraphic" in2="BackgroundImageFix" result="shape"/>
<feGaussianBlur stdDeviation="2.5" result="effect1_foregroundBlur_531_1086"/>
</filter>
<filter id="filter1_f_531_1086" x="2542.28" y="3065.16" width="1200.89" height="1785" filterUnits="userSpaceOnUse" color-interpolation-filters="sRGB">
<feFlood flood-opacity="0" result="BackgroundImageFix"/>
<feBlend mode="normal" in="SourceGraphic" in2="BackgroundImageFix" result="shape"/>
<feGaussianBlur stdDeviation="6.6" result="effect1_foregroundBlur_531_1086"/>
</filter>
<filter id="filter2_f_531_1086" x="2539.89" y="4492.09" width="1144.7" height="718.76" filterUnits="userSpaceOnUse" color-interpolation-filters="sRGB">
<feFlood flood-opacity="0" result="BackgroundImageFix"/>
<feBlend mode="normal" in="SourceGraphic" in2="BackgroundImageFix" result="shape"/>
<feGaussianBlur stdDeviation="6.25" result="effect1_foregroundBlur_531_1086"/>
</filter>
</defs>
</svg>
