<svg width="95" height="95" viewBox="0 0 95 95" fill="none" xmlns="http://www.w3.org/2000/svg">
<circle cx="47.5" cy="47.5" r="46.75" fill="#FFF3DA" fill-opacity="0.01" stroke="#E0A643" stroke-width="1.5"/>
<g clip-path="url(#clip0_531_1000)">
<path d="M64 39.09L36.7255 66.369C36.1286 66.966 35.42 67.4396 34.6401 67.7628C33.8603 68.0859 33.0244 68.2523 32.1802 68.2524C30.4753 68.2526 28.8401 67.5755 27.6344 66.3701C26.4287 65.1647 25.7512 63.5297 25.751 61.8248C25.7508 60.1199 26.4278 58.4847 27.6332 57.279L54.9077 30" stroke="#898BBA" stroke-width="1.5" stroke-linecap="round" stroke-linejoin="round"/>
<path d="M34.75 50.25H52.75" stroke="#898BBA" stroke-linecap="round" stroke-linejoin="round"/>
<mask id="path-4-inside-1_531_1000" fill="white">
<path d="M67.3019 44.5321L69.4822 46.0951C69.857 46.3814 70.1489 46.7738 70.3228 47.2253C70.4966 47.6768 70.5451 48.1683 70.4623 48.6407C70.3795 49.113 70.169 49.5463 69.8561 49.8884C69.5432 50.2305 69.1411 50.467 68.6981 50.5694C68.2551 50.6719 67.79 50.6359 67.3586 50.4659C66.9272 50.2959 66.5479 49.9991 66.2662 49.611C65.9844 49.2229 65.8122 48.7601 65.7702 48.2781C65.7281 47.7961 65.8181 47.3154 66.0292 46.8936L67.3019 44.5321Z"/>
</mask>
<path d="M67.3019 44.5321L87.6942 16.0865C79.5188 10.2256 69.2169 8.16566 59.4163 10.432C49.6158 12.6984 41.2641 19.072 36.4917 27.927L67.3019 44.5321ZM69.4822 46.0951L90.7234 18.2776C90.4436 18.064 90.1605 17.8546 89.8744 17.6494L69.4822 46.0951ZM66.0292 46.8936L35.219 30.2884C35.052 30.5983 34.8897 30.9107 34.7321 31.2255L66.0292 46.8936ZM67.3019 44.5321L46.9097 72.9778L49.0899 74.5407L69.4822 46.0951L89.8744 17.6494L87.6942 16.0865L67.3019 44.5321ZM69.4822 46.0951L48.241 73.9126C43.3353 70.1667 39.7484 65.2247 37.6604 59.8018L70.3228 47.2253L102.985 34.6489C100.549 28.3228 96.3788 22.5961 90.7234 18.2776L69.4822 46.0951ZM70.3228 47.2253L37.6604 59.8018C35.5737 54.3824 34.964 48.4408 35.9877 42.5992L70.4623 48.6407L104.937 54.6821C106.126 47.8957 105.42 40.9713 102.985 34.6489L70.3228 47.2253ZM70.4623 48.6407L35.9877 42.5992C37.0136 36.7448 39.6853 31.016 44.0304 26.2657L69.8561 49.8884L95.6818 73.5111C100.653 68.0766 103.745 61.4813 104.937 54.6821L70.4623 48.6407ZM69.8561 49.8884L44.0304 26.2657C48.3987 21.49 54.2091 17.9963 60.8125 16.4693L68.6981 50.5694L76.5837 84.6695C84.0731 82.9376 90.6877 78.971 95.6818 73.5111L69.8561 49.8884ZM68.6981 50.5694L60.8125 16.4693C67.4158 14.9423 74.1702 15.5304 80.1916 17.9035L67.3586 50.4659L54.5256 83.0284C61.4098 85.7415 69.0943 86.4014 76.5837 84.6695L68.6981 50.5694ZM67.3586 50.4659L80.1916 17.9035C86.181 20.2639 91.0965 24.2382 94.5885 29.0479L66.2662 49.611L37.9438 70.1742C41.9993 75.76 47.6735 80.328 54.5256 83.0284L67.3586 50.4659ZM66.2662 49.611L94.5885 29.0479C98.0729 33.847 100.134 39.453 100.638 45.2383L65.7702 48.2781L30.9024 51.3179C31.4908 58.0672 33.8959 64.5989 37.9438 70.1742L66.2662 49.611ZM65.7702 48.2781L100.638 45.2383C101.143 51.0274 100.089 57.0423 97.3264 62.5616L66.0292 46.8936L34.7321 31.2255C31.5467 37.5884 30.3137 44.5648 30.9024 51.3179L65.7702 48.2781ZM66.0292 46.8936L96.8395 63.4987L98.1122 61.1373L67.3019 44.5321L36.4917 27.927L35.219 30.2884L66.0292 46.8936Z" fill="white" mask="url(#path-4-inside-1_531_1000)"/>
<path d="M52.75 27.75L66.25 41.25" stroke="#898BBA" stroke-width="1.5" stroke-linecap="round" stroke-linejoin="round"/>
<path d="M33 53C33 51.3431 34.3431 50 36 50H48.5C49.3284 50 50 50.6716 50 51.5V51.5C50 52.3284 49.3284 53 48.5 53H33V53Z" fill="#D9D9D9"/>
<rect x="41.8574" y="61.1953" width="13.5296" height="12.2793" rx="6.13963" transform="rotate(137.325 41.8574 61.1953)" fill="#D9D9D9"/>
<rect x="28.0049" y="57.2119" width="9.95655" height="6" transform="rotate(-46.407 28.0049 57.2119)" fill="#D9D9D9"/>
<rect x="33" y="61.2109" width="9.95655" height="6" transform="rotate(-46.407 33 61.2109)" fill="#D9D9D9"/>
<rect x="33" y="58.2109" width="9.95655" height="6" transform="rotate(-46.407 33 58.2109)" fill="#D9D9D9"/>
<rect x="36" y="58.2109" width="9.95655" height="6" transform="rotate(-46.407 36 58.2109)" fill="#D9D9D9"/>
<path d="M39 54.5957L40.3613 53.1659C42.7675 50.6385 46.7671 50.5402 49.2945 52.9465V52.9465L43.5763 58.9526L39 54.5957Z" fill="#D9D9D9"/>
<rect x="47" y="53.6172" width="4.96531" height="1.20299" transform="rotate(-46.3309 47 53.6172)" fill="#D9D9D9"/>
<rect x="34" y="50" width="18" height="1" fill="#898BBA"/>
</g>
<defs>
<clipPath id="clip0_531_1000">
<rect width="54" height="54" fill="white" transform="translate(19 21)"/>
</clipPath>
</defs>
</svg>
