<svg width="95" height="95" viewBox="0 0 95 95" fill="none" xmlns="http://www.w3.org/2000/svg">
<circle cx="47.5" cy="47.5" r="46.75" fill="#FFF3DA" fill-opacity="0.01" stroke="#E0A643" stroke-width="1.5"/>
<g clip-path="url(#clip0_531_1009)">
<mask id="path-2-inside-1_531_1009" fill="white">
<path d="M47.5 57.375L56.425 72.8362L60.6197 64.3496L70.0645 64.9586L61.1395 49.5"/>
</mask>
<path d="M100.33 26.879C83.4874 -2.29812 46.1811 -12.2973 17.004 4.54514C-12.1731 21.3876 -22.1723 58.6939 -5.32986 87.871L47.5 57.375L100.33 26.879ZM56.425 72.8362L3.59513 103.332C14.8431 122.818 35.9037 134.53 58.3908 133.805C80.878 133.08 101.14 120.035 111.11 99.8656L56.425 72.8362ZM60.6197 64.3496L64.5449 3.47604C39.9674 1.89128 16.8481 15.2415 5.93508 37.3202L60.6197 64.3496ZM70.0645 64.9586L66.1393 125.832C88.5891 127.28 110.013 116.254 121.883 97.1434C133.752 78.0332 134.14 53.9412 122.892 34.4587L70.0645 64.9586ZM113.967 19.0001C97.1225 -10.1758 59.8155 -20.1722 30.6396 -3.32761C1.46371 13.517 -8.53275 50.824 8.31188 79.9999L61.1395 49.5L113.967 19.0001ZM47.5 57.375L-5.32986 87.871L3.59513 103.332L56.425 72.8362L109.255 42.3403L100.33 26.879L47.5 57.375ZM56.425 72.8362L111.11 99.8656L115.304 91.379L60.6197 64.3496L5.93508 37.3202L1.74033 45.8069L56.425 72.8362ZM60.6197 64.3496L56.6946 125.223L66.1393 125.832L70.0645 64.9586L73.9896 4.08504L64.5449 3.47604L60.6197 64.3496ZM70.0645 64.9586L122.892 34.4587L113.967 19.0001L61.1395 49.5L8.31188 79.9999L17.2369 95.4585L70.0645 64.9586Z" fill="#E0A643" mask="url(#path-2-inside-1_531_1009)"/>
<mask id="path-4-inside-2_531_1009" fill="white">
<path d="M33.8557 49.5L24.9307 64.9612L34.3754 64.3496L38.5702 72.8336L47.4952 57.375"/>
</mask>
<path d="M89.2837 81.4958C106.954 50.8837 96.4635 11.7428 65.8515 -5.92804C35.2394 -23.5988 -3.90159 -13.1079 -21.5724 17.5042L33.8557 49.5L89.2837 81.4958ZM24.9307 64.9612L-30.4974 32.9654C-42.2984 53.4089 -41.8882 78.6885 -29.4302 98.7384C-16.9722 118.788 5.5108 130.353 29.0665 128.827L24.9307 64.9612ZM34.3754 64.3496L91.746 35.9839C80.2919 12.8175 56.0288 -1.18667 30.2395 0.483395L34.3754 64.3496ZM38.5702 72.8336L-18.8004 101.199C-8.33919 122.358 12.9184 136.04 36.5092 136.8C60.1001 137.56 82.1943 125.274 93.9958 104.834L38.5702 72.8336ZM102.921 89.3749C120.594 58.7641 110.106 19.6224 79.495 1.94931C48.8843 -15.7237 9.74252 -5.23566 -7.93053 25.3751L47.4952 57.375L102.921 89.3749ZM33.8557 49.5L-21.5724 17.5042L-30.4974 32.9654L24.9307 64.9612L80.3587 96.9571L89.2837 81.4958L33.8557 49.5ZM24.9307 64.9612L29.0665 128.827L38.5113 128.216L34.3754 64.3496L30.2395 0.483395L20.7948 1.09502L24.9307 64.9612ZM34.3754 64.3496L-22.9952 92.7154L-18.8004 101.199L38.5702 72.8336L95.9407 44.4679L91.746 35.9839L34.3754 64.3496ZM38.5702 72.8336L93.9958 104.834L102.921 89.3749L47.4952 57.375L-7.93053 25.3751L-16.8555 40.8337L38.5702 72.8336Z" fill="#E0A643" mask="url(#path-4-inside-2_531_1009)"/>
<path d="M31.75 41.625C31.75 45.8022 33.4094 49.8082 36.3631 52.7619C39.3168 55.7156 43.3228 57.375 47.5 57.375C51.6772 57.375 55.6832 55.7156 58.6369 52.7619C61.5906 49.8082 63.25 45.8022 63.25 41.625C63.25 37.4478 61.5906 33.4418 58.6369 30.4881C55.6832 27.5344 51.6772 25.875 47.5 25.875C43.3228 25.875 39.3168 27.5344 36.3631 30.4881C33.4094 33.4418 31.75 37.4478 31.75 41.625Z" fill="#B8B8B8" stroke="#E0A643" stroke-linecap="round" stroke-linejoin="round"/>
</g>
<path d="M49.477 48H45.975V39.551H43.119L45.329 36.627H49.477V48Z" fill="white"/>
<defs>
<clipPath id="clip0_531_1009">
<rect width="63" height="63" fill="white" transform="translate(16 18)"/>
</clipPath>
</defs>
</svg>
